<svg id="Capa_1" enable-background="new 0 0 512 512" height="512" viewBox="0 0 512 512" width="512" xmlns="http://www.w3.org/2000/svg" xmlns:xlink="http://www.w3.org/1999/xlink"><linearGradient id="SVGID_1_" gradientUnits="userSpaceOnUse" x1="256" x2="256" y1="512" y2="0"><stop offset="0" stop-color="#ffbef9"/><stop offset="1" stop-color="#fff1ff"/></linearGradient><linearGradient id="SVGID_2_" gradientUnits="userSpaceOnUse" x1="256" x2="256" y1="407" y2="105"><stop offset="0" stop-color="#ff81ff"/><stop offset="1" stop-color="#a93aff"/></linearGradient><g><g><circle cx="256" cy="256" fill="url(#SVGID_1_)" r="256"/></g><g><g><path d="m256 229.353c-34.28 0-62.176 27.896-62.176 62.176s27.896 62.177 62.176 62.177 62.176-27.896 62.176-62.177-27.896-62.176-62.176-62.176zm36.883 50.414-39.485 39.485c-3.47 3.47-9.09 3.47-12.56 0l-26.317-26.317c-3.47-3.47-3.47-9.09 0-12.56s9.091-3.47 12.56 0l20.037 20.037 33.205-33.205c3.47-3.47 9.091-3.47 12.56 0s3.469 9.09 0 12.56zm109.854-126.98c-4.797-7.639-13.324-12.258-22.384-12.258h-8.882v26.647c0 14.744-11.902 26.647-26.647 26.647-4.975 0-8.882-3.909-8.882-8.882 0-4.975 3.908-8.882 8.882-8.882 4.975 0 8.882-3.909 8.882-8.882v-26.647h-17.765v-8.882c0-4.975 3.908-8.882 8.882-8.882 4.975 0 8.882 3.908 8.882 8.882v8.882h17.765v-8.882c0-14.745-11.902-26.647-26.647-26.647s-26.647 11.902-26.647 26.647v8.882h-35.529v26.647c0 14.744-11.902 26.647-26.647 26.647-4.975 0-8.882-3.909-8.882-8.882 0-4.975 3.908-8.882 8.882-8.882s8.882-3.909 8.882-8.882v-26.647h-17.765v-8.882c0-4.975 3.908-8.882 8.882-8.882s8.882 3.908 8.882 8.882v8.882h17.765v-8.882c.001-14.747-11.901-26.649-26.646-26.649s-26.647 11.902-26.647 26.647v8.882h-35.529v26.647c0 14.744-11.902 26.647-26.647 26.647-4.975 0-8.882-3.909-8.882-8.882 0-4.975 3.908-8.882 8.882-8.882 4.975 0 8.882-3.909 8.882-8.882v-26.647h-17.765v-8.882c0-4.975 3.908-8.882 8.882-8.882 4.975 0 8.882 3.908 8.882 8.882v8.882h17.765v-8.882c0-14.745-11.902-26.647-26.647-26.647s-26.647 11.902-26.647 26.647v8.882h-8.882c-14.745 0-26.647 11.902-26.647 26.647v230.941c0 4.974 3.908 8.882 8.882 8.882h284.235c4.975 0 8.882-3.909 8.882-8.882v-230.941c.001-5.153-1.421-10.127-4.262-14.39zm-146.737 218.684c-44.082 0-79.941-35.859-79.941-79.941s35.859-79.941 79.941-79.941 79.941 35.859 79.941 79.941-35.859 79.941-79.941 79.941z" fill="url(#SVGID_2_)"/></g></g></g></svg>